<?xml version="1.0" standalone="no"?>
<!DOCTYPE svg PUBLIC "-//W3C//DTD SVG 20010904//EN"
 "http://www.w3.org/TR/2001/REC-SVG-20010904/DTD/svg10.dtd">
<svg version="1.0" xmlns="http://www.w3.org/2000/svg"
 width="2000.000000pt" height="2000.000000pt" viewBox="0 0 2000.000000 2000.000000"
 preserveAspectRatio="xMidYMid meet">

<g transform="translate(0.000000,2000.000000) scale(0.100000,-0.100000)"
fill="#000000" stroke="none">
<path d="M0 17880 l0 -2120 2120 0 2120 0 0 2120 0 2120 -2120 0 -2120 0 0
-2120z m3640 -5 l0 -1515 -1515 0 -1515 0 0 1515 0 1515 1515 0 1515 0 0
-1515z"/>
<path d="M1210 17880 l0 -910 910 0 910 0 0 910 0 910 -910 0 -910 0 0 -910z"/>
<path d="M4850 19695 l0 -305 303 2 302 3 3 303 2 302 -305 0 -305 0 0 -305z"/>
<path d="M6670 19395 l0 -605 300 0 300 0 0 -305 0 -305 -605 0 -605 0 0 305
0 305 -302 -2 -303 -3 -3 -302 -2 -303 -300 0 -300 0 0 -1515 0 -1515 -605 0
-605 0 -2 -302 -3 -303 -302 -3 -303 -2 0 305 0 305 -305 0 -305 0 2 -302 3
-303 303 -3 302 -2 0 -300 0 -300 305 0 305 0 0 -305 0 -305 300 0 300 0 0
-300 0 -300 -605 0 -605 0 0 300 0 300 -305 0 -305 0 0 -300 0 -300 -300 0
-300 0 0 605 0 605 -305 0 -305 0 0 300 0 300 -300 0 -300 0 0 305 0 305 -305
0 -305 0 0 -305 0 -305 300 0 300 0 0 -300 0 -300 -300 0 -300 0 0 -605 0
-605 300 0 300 0 0 -305 0 -305 -300 0 -300 0 0 -305 0 -305 1210 0 1210 0 0
-605 0 -605 -300 0 -300 0 0 305 0 305 -910 0 -910 0 0 -1215 0 -1215 300 0
300 0 0 -300 0 -300 -300 0 -300 0 0 -605 0 -605 605 0 605 0 0 300 0 300 305
0 305 0 0 -605 0 -605 -305 0 -305 0 0 -305 0 -305 -605 0 -605 0 0 -300 0
-300 605 0 605 0 0 300 0 300 303 2 302 3 3 303 2 302 300 0 300 0 0 -605 0
-605 305 0 305 0 0 300 0 300 305 0 305 0 0 -300 0 -300 300 0 300 0 0 300 0
300 608 2 607 3 3 303 2 302 -610 0 -610 0 0 305 0 305 610 0 610 0 0 300 0
300 -305 0 -305 0 0 910 0 910 605 0 605 0 0 -1210 0 -1210 605 0 605 0 2
-607 3 -608 303 -3 302 -2 0 -300 0 -300 300 0 300 0 2 -302 3 -303 303 -3
302 -2 0 -300 0 -300 -302 -2 -303 -3 -3 -302 -2 -303 -300 0 -300 0 0 -605 0
-605 300 0 300 0 0 -305 0 -305 -300 0 -300 0 0 -305 0 -305 303 2 302 3 3
303 2 302 300 0 300 0 0 -305 0 -305 605 0 605 0 0 -300 0 -300 305 0 305 0 0
300 0 300 300 0 300 0 0 -300 0 -300 1820 0 1820 0 0 300 0 300 305 0 305 0 0
-300 0 -300 300 0 300 0 0 300 0 300 -300 0 -300 0 0 305 0 305 908 2 907 3 3
602 2 603 300 0 300 0 0 305 0 305 -300 0 -300 0 0 305 0 305 300 0 300 0 0
300 0 300 305 0 305 0 0 305 0 305 305 0 305 0 0 300 0 300 300 0 300 0 0 305
0 305 -300 0 -300 0 0 605 0 605 -305 0 -305 0 0 -1210 0 -1210 -305 0 -305 0
0 300 0 300 -605 0 -605 0 0 305 0 305 605 0 605 0 0 305 0 305 -605 0 -605 0
0 1210 0 1210 -305 0 -305 0 0 -605 0 -605 -300 0 -300 0 0 300 0 300 -302 2
-303 3 -3 907 -2 908 305 0 305 0 0 -300 0 -300 300 0 300 0 0 300 0 300 305
0 305 0 0 -300 0 -300 300 0 300 0 2 -608 3 -607 303 -3 302 -2 0 305 0 305
305 0 305 0 0 -605 0 -605 305 0 305 0 0 1210 0 1210 -305 0 -305 0 0 -300 0
-300 -305 0 -305 0 0 300 0 300 -605 0 -605 0 0 305 0 305 305 0 305 0 0 300
0 300 300 0 300 0 0 -300 0 -300 610 0 610 0 0 300 0 300 -607 2 -608 3 -3
608 -2 607 -303 -2 -302 -3 -3 -607 -2 -608 -300 0 -300 0 0 305 0 305 -305 0
-305 0 0 305 0 305 -300 0 -300 0 0 300 0 300 300 0 300 0 0 305 0 305 -300 0
-300 0 0 300 0 300 905 0 905 0 2 -602 3 -603 303 -3 302 -2 0 305 0 305 305
0 305 0 0 -305 0 -305 303 2 302 3 3 303 2 302 300 0 300 0 0 605 0 605 -305
0 -305 0 0 -605 0 -605 -300 0 -300 0 0 300 0 300 -302 2 -303 3 -3 303 -2
302 -1515 0 -1515 0 0 910 0 910 -605 0 -605 0 0 605 0 605 303 2 302 3 0 300
0 300 -302 3 -303 2 0 -305 0 -305 -305 0 -305 0 0 305 0 305 -300 0 -300 0 0
-910 0 -910 -305 0 -305 0 0 300 0 300 -305 0 -305 0 0 -300 0 -300 305 0 305
0 0 -605 0 -605 -300 0 -300 0 0 300 0 300 -305 0 -305 0 0 910 0 910 605 0
605 0 0 605 0 605 -300 0 -300 0 0 305 0 305 -305 0 -305 0 0 -605 0 -605
-910 0 -910 0 0 300 0 300 303 2 302 3 3 303 2 302 -305 0 -305 0 0 -305 0
-305 -300 0 -300 0 0 305 0 305 -910 0 -910 0 0 -605z m1812 -907 l3 -303 608
-3 607 -2 0 -605 0 -605 300 0 300 0 0 -305 0 -305 305 0 305 0 0 -300 0 -300
-305 0 -305 0 0 -610 0 -610 -300 0 -300 0 0 305 0 305 -305 0 -305 0 0 -605
0 -605 -605 0 -605 0 0 -305 0 -305 -305 0 -305 0 0 -300 0 -300 305 0 305 0
0 -305 0 -305 300 0 300 0 0 -605 0 -605 -300 0 -300 0 0 -305 0 -305 1210 0
1210 0 0 -300 0 -300 305 0 305 0 0 -305 0 -305 305 0 305 0 0 305 0 305 300
0 300 0 0 -910 0 -910 -300 0 -300 0 0 300 0 300 -305 0 -305 0 0 305 0 305
-305 0 -305 0 0 305 0 305 -605 0 -605 0 0 -610 0 -610 -300 0 -300 0 0 305 0
305 -610 0 -610 0 0 -605 0 -605 -300 0 -300 0 0 910 0 910 -305 0 -305 0 0
300 0 300 -300 0 -300 0 0 305 0 305 -305 0 -305 0 0 605 0 605 -305 0 -305 0
0 -305 0 -305 -300 0 -300 0 0 305 0 305 300 0 300 0 0 305 0 305 305 0 305 0
0 300 0 300 300 0 300 0 0 -605 0 -605 610 0 610 0 0 605 0 605 -605 0 -605 0
0 305 0 305 905 0 905 0 0 300 0 300 305 0 305 0 0 305 0 305 -305 0 -305 0 0
305 0 305 -300 0 -300 0 0 -305 0 -305 -305 0 -305 0 0 -305 0 -305 -300 0
-300 0 0 910 0 910 300 0 300 0 0 -300 0 -300 305 0 305 0 0 300 0 300 300 0
300 0 0 305 0 305 305 0 305 0 0 910 0 910 300 0 300 0 2 -302z m4848 -2428
l0 -300 305 0 305 0 0 300 0 300 300 0 300 0 0 -605 0 -605 -605 0 -605 0 0
305 0 305 -300 0 -300 0 0 300 0 300 300 0 300 0 0 -300z m-1210 -1215 l0
-305 305 0 305 0 0 -300 0 -300 605 0 605 0 0 -305 0 -305 300 0 300 0 0 -300
0 -300 -300 0 -300 0 0 300 0 300 -305 0 -305 0 0 -605 0 -605 605 0 605 0 0
-305 0 -305 -300 0 -300 0 0 -300 0 -300 300 0 300 0 0 -605 0 -605 -300 0
-300 0 0 300 0 300 -305 0 -305 0 0 605 0 605 -300 0 -300 0 0 305 0 305
-1215 0 -1215 0 0 -605 0 -605 -300 0 -300 0 0 300 0 300 -305 0 -305 0 0 305
0 305 -300 0 -300 0 0 605 0 605 605 0 605 0 0 305 0 305 605 0 605 0 0 -305
0 -305 300 0 300 0 0 -300 0 -300 610 0 610 0 0 300 0 300 -605 0 -605 0 0
605 0 605 -305 0 -305 0 0 305 0 305 605 0 605 0 0 -305z m3030 -605 l0 -910
-300 0 -300 0 0 910 0 910 300 0 300 0 0 -910z m-10910 0 l0 -300 -300 0 -300
0 0 300 0 300 300 0 300 0 0 -300z m1210 0 l0 -300 -300 0 -300 0 0 300 0 300
300 0 300 0 0 -300z m-4240 -605 l0 -305 -300 0 -300 0 0 305 0 305 300 0 300
0 0 -305z m14550 -1210 l0 -305 -305 0 -305 0 0 305 0 305 305 0 305 0 0 -305z
m-3640 -1215 l0 -300 305 0 305 0 0 -305 0 -305 -605 0 -605 0 0 605 0 605
300 0 300 0 0 -300z m4850 0 l0 -300 -305 0 -305 0 0 300 0 300 305 0 305 0 0
-300z m-12730 -605 l0 -305 -605 0 -605 0 0 305 0 305 605 0 605 0 0 -305z
m-1820 -1210 l0 -305 -605 0 -605 0 0 305 0 305 605 0 605 0 0 -305z m1820 0
l0 -305 -300 0 -300 0 0 -305 0 -305 300 0 300 0 0 -300 0 -300 -605 0 -605 0
0 -305 0 -305 605 0 605 0 0 -300 0 -300 -905 0 -905 0 0 605 0 605 -305 0
-305 0 0 300 0 300 303 2 302 3 3 303 2 302 605 0 605 0 0 305 0 305 300 0
300 0 0 -305z m9090 0 l0 -305 -300 0 -300 0 0 305 0 305 300 0 300 0 0 -305z
m-3030 -1215 l0 -300 305 0 305 0 0 -305 0 -305 300 0 300 0 0 -300 0 -300
-300 0 -300 0 0 -305 0 -305 -305 0 -305 0 0 -305 0 -305 -905 0 -905 0 0 305
0 305 300 0 300 0 0 305 0 305 -302 -2 -303 -3 -3 -302 -2 -303 -300 0 -300 0
0 305 0 305 -305 0 -305 0 0 300 0 300 305 0 305 0 0 305 0 305 910 0 910 0 0
300 0 300 300 0 300 0 0 -300z m4240 0 l0 -300 610 0 610 0 0 -305 0 -305 300
0 300 0 0 -300 0 -300 305 0 305 0 0 -305 0 -305 -605 0 -605 0 0 605 0 605
-305 0 -305 0 0 -300 0 -300 -300 0 -300 0 0 300 0 300 -610 0 -610 0 0 -300
0 -300 305 0 305 0 0 -305 0 -305 -305 0 -305 0 0 305 0 305 -300 0 -300 0 0
-305 0 -305 -305 0 -305 0 0 605 0 605 305 0 305 0 0 305 0 305 300 0 300 0 0
300 0 300 605 0 605 0 0 -300z m-13330 -605 l0 -305 -300 0 -300 0 0 305 0
305 300 0 300 0 0 -305z m3030 -1820 l0 -305 -300 0 -300 0 0 305 0 305 300 0
300 0 0 -305z m10910 0 l0 -305 -300 0 -300 0 0 305 0 305 300 0 300 0 0 -305z
m-3030 -605 l0 -300 305 0 305 0 0 -305 0 -305 905 0 905 0 0 -910 0 -910
-300 0 -300 0 0 -300 0 -300 305 0 305 0 0 300 0 300 605 0 605 0 0 -300 0
-300 -305 0 -305 0 0 -305 0 -305 -305 0 -305 0 0 -305 0 -305 -602 2 -603 3
-3 608 -2 607 -300 0 -300 0 0 300 0 300 -305 0 -305 0 0 610 0 610 -300 0
-300 0 0 300 0 300 -305 0 -305 0 0 -300 0 -300 300 0 300 0 0 -610 0 -610
-300 0 -300 0 0 -605 0 -605 -605 0 -605 0 0 305 0 305 -605 0 -605 0 0 605 0
605 605 0 605 0 0 -305 0 -305 300 0 300 0 0 610 0 610 -300 0 -300 0 0 300 0
300 605 0 605 0 0 605 0 605 605 0 605 0 0 -300z m4850 -1210 l0 -910 -910 0
-910 0 0 910 0 910 910 0 910 0 0 -910z m1210 605 l0 -305 -300 0 -300 0 0
305 0 305 300 0 300 0 0 -305z m-6060 -3030 l0 -305 305 0 305 0 -2 -302 -3
-303 -602 -3 -603 -2 0 610 0 610 300 0 300 0 0 -305z"/>
<path d="M9090 16665 l0 -305 -305 0 -305 0 2 -602 3 -603 303 -3 302 -2 0
605 0 605 305 0 305 0 0 -300 0 -300 300 0 300 0 0 300 0 300 -300 0 -300 0 0
305 0 305 -305 0 -305 0 0 -305z"/>
<path d="M7270 16060 l0 -300 305 0 305 0 0 300 0 300 -305 0 -305 0 0 -300z"/>
<path d="M6060 10905 l0 -605 305 0 305 0 0 -300 0 -300 605 0 605 0 0 300 0
300 -305 0 -305 0 0 305 0 305 305 0 305 0 0 300 0 300 -305 0 -305 0 0 -300
0 -300 -300 0 -300 0 0 300 0 300 -305 0 -305 0 0 -605z"/>
<path d="M9700 12725 l0 -605 300 0 300 0 0 605 0 605 -300 0 -300 0 0 -605z"/>
<path d="M9700 6665 l0 -605 300 0 300 0 0 305 0 305 305 0 305 0 0 300 0 300
-605 0 -605 0 0 -605z"/>
<path d="M13332 3033 l3 -608 303 -3 302 -2 0 610 0 610 -305 0 -305 0 2 -607z"/>
<path d="M15760 3940 l0 -300 300 0 300 0 0 300 0 300 -300 0 -300 0 0 -300z"/>
<path d="M13940 19695 l0 -305 303 2 302 3 3 303 2 302 -305 0 -305 0 0 -305z"/>
<path d="M15760 17880 l0 -2120 2120 0 2120 0 0 2120 0 2120 -2120 0 -2120 0
0 -2120z m3630 -5 l0 -1515 -1515 0 -1515 0 0 1515 0 1515 1515 0 1515 0 0
-1515z"/>
<path d="M16970 17880 l0 -910 910 0 910 0 0 910 0 910 -910 0 -910 0 0 -910z"/>
<path d="M18790 12425 l0 -305 305 0 305 0 -2 303 -3 302 -302 3 -303 2 0
-305z"/>
<path d="M17572 7578 l3 -303 303 -3 302 -2 0 305 0 305 -305 0 -305 0 2 -302z"/>
<path d="M6060 5150 l0 -910 -300 0 -300 0 -2 303 -3 302 -302 3 -303 2 0
-605 0 -605 605 0 605 0 0 -305 0 -305 305 0 305 0 -2 -302 -3 -303 -602 -3
-603 -2 0 305 0 305 -305 0 -305 0 0 -305 0 -305 300 0 300 0 2 -602 3 -603
303 -3 302 -2 0 305 0 305 605 0 605 0 0 910 0 910 -605 0 -605 0 0 300 0 300
605 0 605 0 0 305 0 305 -300 0 -300 0 0 605 0 605 -305 0 -305 0 0 -910z"/>
<path d="M0 2120 l0 -2120 2120 0 2120 0 0 2120 0 2120 -2120 0 -2120 0 0
-2120z m3638 3 l-3 -1518 -1512 -3 -1513 -2 0 1520 0 1520 1515 0 1515 0 -2
-1517z"/>
<path d="M1210 2120 l0 -910 910 0 910 0 0 910 0 910 -910 0 -910 0 0 -910z"/>
<path d="M19397 3633 c-4 -3 -7 -278 -7 -610 l0 -603 -300 0 -300 0 0 -300 0
-300 305 0 305 0 0 300 0 300 300 0 300 0 0 610 0 610 -298 0 c-164 0 -302 -3
-305 -7z"/>
<path d="M4850 300 l0 -300 305 0 305 0 0 300 0 300 -305 0 -305 0 0 -300z"/>
<path d="M6060 300 l0 -300 605 0 605 0 0 300 0 300 -605 0 -605 0 0 -300z"/>
<path d="M17570 300 l0 -300 305 0 305 0 0 300 0 300 -305 0 -305 0 0 -300z"/>
<path d="M19390 300 l0 -300 305 0 305 0 0 300 0 300 -305 0 -305 0 0 -300z"/>
</g>
</svg>
